{"glyphs":{":":{"x_min":0,"x_max":318,"ha":318,"o":"m 69 336 l 69 508 l 249 508 l 249 336 z m 69 0 l 69 172 l 249 172 l 249 0 z"},"$":{"x_min":0,"x_max":590,"ha":590,"o":"m 266 444 l 266 576 q 234 574 217 558 q 200 542 200 515 q 200 491 215 475 q 229 458 266 444 z m 327 111 q 358 115 376 133 q 395 151 395 179 q 395 208 378 228 q 362 248 327 262 z m 266 -113 l 266 -17 q 148 -14 88 43 q 29 101 27 213 l 184 213 q 185 162 204 138 q 223 114 266 111 l 266 283 q 149 319 96 371 q 42 423 42 502 q 42 590 102 643 q 161 696 266 701 l 266 758 l 327 758 l 327 701 q 430 700 488 647 q 545 594 546 499 l 391 499 q 391 536 375 555 q 358 574 327 576 l 327 422 q 454 377 506 324 q 559 271 559 187 q 559 102 496 46 q 433 -10 327 -17 l 327 -113 z"},"?":{"x_min":0,"x_max":597,"ha":597,"o":"m 212 0 l 212 172 l 392 172 l 392 0 z m 219 229 l 219 233 q 219 283 236 325 q 253 368 282 392 q 292 400 311 416 q 393 481 393 524 q 393 558 367 578 q 342 598 298 598 q 252 598 228 572 q 203 546 203 497 l 203 491 l 29 491 q 34 610 102 673 q 171 735 297 735 q 419 735 494 678 q 568 621 568 529 q 568 481 551 444 q 534 406 497 375 q 489 368 472 354 q 388 283 385 229 z"},"<":{"x_min":0,"x_max":833,"ha":833,"o":"m 704 593 l 704 469 l 287 298 l 704 128 l 704 4 l 129 241 l 129 355 z"},"'":{"x_min":0,"x_max":181,"ha":181,"o":"m 37 702 l 144 702 l 144 428 l 37 428 z"},"=":{"x_min":0,"x_max":833,"ha":833,"o":"m 124 245 l 709 245 l 709 133 l 124 133 z m 124 464 l 709 464 l 709 351 l 124 351 z"},"a":{"x_min":0,"x_max":583,"ha":583,"o":"m 363 250 q 343 237 292 227 q 268 222 255 218 q 224 209 211 196 q 198 182 198 159 q 198 131 216 114 q 233 96 262 96 q 307 96 335 122 q 363 147 363 189 z m 554 0 l 377 0 q 374 13 372 26 q 370 40 368 55 q 331 18 290 0 q 249 -17 199 -17 q 123 -17 78 25 q 33 67 33 139 q 33 205 68 246 q 103 288 174 304 q 213 313 273 323 q 363 338 363 366 l 363 379 q 363 402 345 414 q 328 426 294 426 q 257 426 235 411 q 213 396 208 366 l 48 366 q 61 456 122 500 q 184 544 298 544 q 369 544 417 527 q 466 510 493 475 q 512 450 520 416 q 528 381 528 305 l 528 104 q 528 68 534 47 q 541 26 554 20 z"},"L":{"x_min":0,"x_max":613,"ha":613,"o":"m 75 0 l 75 719 l 260 719 l 260 156 l 608 156 l 608 0 z"},"3":{"x_min":0,"x_max":590,"ha":590,"o":"m 27 217 l 193 217 q 194 167 219 140 q 244 114 291 114 q 333 114 359 139 q 385 164 385 204 q 385 251 354 274 q 323 298 260 298 l 245 298 l 245 415 l 257 415 q 314 415 343 437 q 371 458 371 502 q 371 539 350 561 q 329 582 292 582 q 248 582 225 559 q 202 535 198 487 l 38 487 q 41 593 108 651 q 175 709 296 709 q 405 709 471 658 q 536 606 536 521 q 536 475 515 439 q 495 402 452 373 q 504 351 531 308 q 557 265 557 205 q 557 101 483 41 q 410 -20 283 -20 q 161 -20 94 42 q 28 104 27 217 z"},";":{"x_min":0,"x_max":318,"ha":318,"o":"m 70 336 l 70 508 l 251 508 l 251 336 z m 70 0 l 70 172 l 251 172 l 251 47 q 251 -50 205 -104 q 159 -157 67 -167 l 67 -107 q 118 -94 141 -69 q 165 -44 165 -5 l 165 0 z"},"J":{"x_min":0,"x_max":586,"ha":586,"o":"m 21 280 l 192 280 l 192 232 q 192 177 209 153 q 227 129 266 129 q 307 129 323 157 q 339 185 339 266 l 339 719 l 519 719 l 519 272 q 519 116 460 49 q 400 -18 265 -18 q 141 -18 80 48 q 20 114 20 250 q 20 255 21 265 q 21 275 21 280 z"},"V":{"x_min":0,"x_max":645,"ha":645,"o":"m 235 0 l -12 719 l 183 719 l 284 350 q 287 340 292 319 q 311 253 321 208 q 326 230 334 260 q 342 290 356 338 l 462 719 l 656 719 l 407 0 z"},"\"":{"x_min":0,"x_max":348,"ha":348,"o":"m 203 702 l 312 702 l 312 428 l 203 428 z m 37 702 l 144 702 l 144 428 l 37 428 z"},"7":{"x_min":0,"x_max":590,"ha":590,"o":"m 118 0 q 125 136 191 273 q 256 410 378 545 l 29 545 l 29 690 l 554 690 l 554 552 q 442 427 382 289 q 321 150 313 0 z"},"S":{"x_min":0,"x_max":682,"ha":682,"o":"m 36 239 l 213 239 q 215 177 249 146 q 283 115 349 115 q 405 115 436 134 q 467 152 467 186 q 467 203 459 217 q 452 230 439 237 q 419 248 341 271 q 263 293 209 315 q 131 346 91 396 q 51 447 51 514 q 51 617 128 678 q 206 739 338 739 q 468 739 544 675 q 620 611 620 502 l 447 502 q 441 552 411 576 q 382 600 326 600 q 282 600 254 582 q 226 563 226 535 q 226 487 358 445 q 382 437 395 433 l 402 431 q 539 386 573 359 q 608 331 626 292 q 644 254 644 207 q 644 100 562 40 q 479 -20 331 -20 q 191 -20 118 44 q 44 108 36 239 z"},"}":{"x_min":0,"x_max":500,"ha":500,"o":"m 65 721 q 72 721 85 722 q 98 722 104 722 q 157 722 192 716 q 227 710 251 698 q 279 683 291 655 q 303 626 303 560 l 303 436 q 303 371 327 344 q 351 317 409 317 q 412 317 418 317 q 424 318 427 318 l 427 200 q 424 200 418 201 q 412 201 409 201 q 351 201 327 174 q 303 147 303 83 l 303 -42 q 303 -109 291 -137 q 279 -165 251 -180 q 229 -192 196 -198 q 162 -203 109 -203 q 102 -203 87 -203 q 73 -202 65 -202 l 65 -84 q 69 -84 76 -84 q 83 -85 86 -85 q 133 -85 150 -68 q 166 -51 166 3 l 166 121 q 166 189 188 218 q 211 247 269 259 q 210 271 188 300 q 166 329 166 398 l 166 515 q 166 569 150 587 q 133 604 88 604 q 84 604 77 604 q 69 603 65 603 z"},"Z":{"x_min":0,"x_max":650,"ha":650,"o":"m 30 0 l 30 144 l 397 574 l 44 574 l 44 719 l 625 719 l 625 574 l 258 144 l 625 144 l 625 0 z"},"x":{"x_min":0,"x_max":544,"ha":544,"o":"m -12 0 l 175 277 l -5 531 l 200 531 l 273 404 l 348 531 l 551 531 l 371 277 l 559 0 l 356 0 l 272 146 l 190 0 z"},")":{"x_min":0,"x_max":396,"ha":396,"o":"m 3 -209 q 72 -96 105 20 q 139 135 139 257 q 139 376 106 490 q 74 604 7 719 l 129 719 q 219 608 265 492 q 310 376 310 255 q 310 141 266 27 q 221 -87 130 -209 z"},"&":{"x_min":0,"x_max":715,"ha":715,"o":"m 336 474 q 368 497 382 519 q 397 541 397 566 q 397 592 381 607 q 365 623 339 623 q 311 623 296 609 q 281 594 281 568 q 281 554 286 542 q 292 530 304 515 z m 395 159 l 284 302 q 242 276 222 251 q 203 227 203 199 q 203 163 230 137 q 256 111 294 111 q 318 111 343 123 q 368 135 395 159 z m 202 409 q 170 450 154 487 q 138 525 138 561 q 138 636 194 684 q 250 733 336 733 q 422 733 474 688 q 526 644 526 570 q 526 510 496 463 q 465 417 404 382 l 490 273 q 502 293 510 317 q 518 342 522 374 l 665 374 q 661 314 639 260 q 617 206 578 160 l 702 0 l 519 0 l 478 54 q 432 14 377 -7 q 323 -27 262 -27 q 164 -27 99 34 q 35 94 35 187 q 35 256 75 310 q 116 364 202 409 z"},"_":{"x_min":0,"x_max":500,"ha":500,"o":"m 0 -119 l 500 -119 l 500 -236 l 0 -236 z"},"v":{"x_min":0,"x_max":559,"ha":559,"o":"m 191 0 l -6 531 l 178 531 l 280 161 l 383 531 l 566 531 l 369 0 z"},"O":{"x_min":0,"x_max":803,"ha":803,"o":"m 228 359 q 228 249 273 190 q 317 132 401 132 q 485 132 530 190 q 575 249 575 359 q 575 468 530 527 q 485 586 401 586 q 317 586 273 527 q 228 469 228 359 z m 41 359 q 41 534 138 636 q 235 738 401 738 q 567 738 665 636 q 763 534 763 359 q 763 184 665 82 q 567 -20 401 -20 q 235 -20 138 82 q 41 184 41 359 z"},"(":{"x_min":0,"x_max":396,"ha":396,"o":"m 391 -209 l 264 -209 q 173 -88 129 26 q 85 140 85 255 q 85 376 130 493 q 175 609 265 719 l 387 719 q 320 604 288 490 q 255 376 255 257 q 255 135 289 20 q 322 -96 391 -209 z"},"C":{"x_min":0,"x_max":745,"ha":745,"o":"m 709 252 q 690 123 607 51 q 524 -20 392 -20 q 234 -20 138 83 q 41 186 41 354 q 41 529 139 633 q 238 737 403 737 q 534 737 616 668 q 699 599 711 480 l 538 480 q 525 532 490 558 q 455 584 397 584 q 320 584 275 523 q 230 462 230 356 q 230 250 272 192 q 315 134 392 134 q 454 134 491 164 q 529 194 538 252 z"},"W":{"x_min":0,"x_max":949,"ha":949,"o":"m 192 0 l -5 719 l 180 719 l 281 209 l 377 719 l 573 719 l 668 209 l 769 719 l 954 719 l 756 0 l 576 0 l 474 517 l 372 0 z"},"A":{"x_min":0,"x_max":714,"ha":714,"o":"m 276 281 l 433 281 l 353 529 z m 259 719 l 460 719 l 714 0 l 516 0 l 472 132 l 232 132 l 191 0 l 0 0 z"},"f":{"x_min":0,"x_max":357,"ha":357,"o":"m 88 0 l 88 411 l 12 411 l 12 518 l 88 518 q 87 524 87 532 q 87 539 87 553 q 87 646 130 686 q 172 725 272 725 q 286 725 305 724 q 325 724 348 722 l 348 606 q 344 606 338 607 q 333 607 323 607 q 288 607 275 592 q 262 577 262 533 l 262 518 l 348 518 l 348 411 l 262 411 l 262 0 z"},"Q":{"x_min":0,"x_max":803,"ha":803,"o":"m 470 145 l 396 223 l 483 306 l 553 232 q 564 259 570 291 q 575 322 575 358 q 575 468 530 527 q 485 586 401 586 q 317 586 273 527 q 228 469 228 359 q 228 249 272 190 q 317 132 401 132 q 420 132 438 135 q 455 139 470 145 z m 587 24 q 546 2 501 -9 q 455 -20 403 -20 q 236 -20 138 82 q 41 184 41 359 q 41 534 138 636 q 235 738 401 738 q 567 738 665 636 q 763 534 763 360 q 763 278 742 213 q 721 148 680 101 l 758 19 l 672 -64 z"},"w":{"x_min":0,"x_max":822,"ha":822,"o":"m 160 0 l 3 531 l 180 531 l 256 166 l 320 531 l 499 531 l 565 166 l 641 531 l 818 531 l 661 0 l 482 0 l 411 350 l 336 0 z"},"-":{"x_min":0,"x_max":345,"ha":345,"o":"m 47 193 l 47 338 l 297 338 l 297 193 z"},"E":{"x_min":0,"x_max":668,"ha":668,"o":"m 71 0 l 71 719 l 617 719 l 617 572 l 255 572 l 255 445 l 586 445 l 586 301 l 255 301 l 255 147 l 629 147 l 629 0 z"},"s":{"x_min":0,"x_max":587,"ha":587,"o":"m 36 162 l 210 162 q 213 127 236 109 q 259 92 303 92 q 340 92 361 106 q 382 120 382 144 q 382 175 300 196 q 256 207 229 216 q 129 249 93 284 q 56 319 56 377 q 56 458 118 504 q 179 550 287 550 q 402 550 465 510 q 527 471 535 393 l 368 393 q 363 420 344 433 q 325 446 291 446 q 260 446 243 434 q 226 422 226 400 q 226 369 311 346 q 332 340 343 337 q 422 314 453 302 q 483 291 497 281 q 526 260 540 232 q 553 204 553 167 q 553 81 486 32 q 418 -17 298 -17 q 180 -17 111 30 q 43 77 36 162 z"},">":{"x_min":0,"x_max":833,"ha":833,"o":"m 129 593 l 704 355 l 704 241 l 129 4 l 129 128 l 546 298 l 129 469 z"},"l":{"x_min":0,"x_max":295,"ha":295,"o":"m 60 0 l 60 719 l 234 719 l 234 0 z"},"8":{"x_min":0,"x_max":590,"ha":590,"o":"m 199 207 q 199 161 225 135 q 250 109 295 109 q 340 109 365 135 q 391 161 391 207 q 391 253 365 280 q 339 306 295 306 q 250 306 225 280 q 199 253 199 207 z m 212 504 q 212 466 234 444 q 257 422 295 422 q 333 422 356 444 q 378 466 378 504 q 378 542 356 564 q 333 586 295 586 q 256 586 234 564 q 212 542 212 504 z m 144 374 q 96 395 73 431 q 49 466 49 518 q 49 608 113 658 q 178 708 295 708 q 412 708 477 658 q 541 608 541 518 q 541 466 518 430 q 495 395 447 374 q 505 353 534 311 q 562 269 562 205 q 562 98 492 40 q 423 -19 295 -19 q 167 -19 97 40 q 28 98 28 205 q 28 269 57 310 q 85 352 144 374 z"},"\\":{"x_min":0,"x_max":331,"ha":331,"o":"m 330 -93 l 251 -93 l 1 738 l 81 738 z"},"e":{"x_min":0,"x_max":597,"ha":597,"o":"m 204 322 l 402 322 q 401 374 375 402 q 349 431 303 431 q 260 431 235 403 q 209 375 204 322 z m 393 167 l 560 167 q 537 80 468 32 q 399 -16 298 -16 q 174 -16 103 59 q 31 134 31 263 q 31 395 103 472 q 175 549 298 549 q 424 549 497 471 q 569 393 569 255 q 569 242 569 236 q 568 229 568 224 l 209 224 q 209 168 233 138 q 257 109 304 109 q 339 109 361 124 q 384 138 393 167 z"},"b":{"x_min":0,"x_max":648,"ha":648,"o":"m 438 271 q 438 336 411 374 q 384 411 338 411 q 289 411 261 374 q 234 337 234 271 q 234 199 260 161 q 285 124 335 124 q 385 124 411 162 q 438 200 438 271 z m 63 719 l 236 719 l 236 464 q 262 505 303 526 q 344 547 396 547 q 493 547 556 468 q 618 389 618 263 q 618 139 556 62 q 494 -15 394 -15 q 343 -15 304 6 q 266 26 237 70 l 237 0 l 63 0 z"},"%":{"x_min":0,"x_max":932,"ha":932,"o":"m 625 179 q 625 146 648 123 q 672 100 705 100 q 738 100 761 123 q 784 146 784 179 q 784 212 761 236 q 738 259 705 259 q 671 259 648 236 q 625 212 625 179 z m 506 179 q 506 262 564 320 q 622 378 705 378 q 788 378 846 320 q 904 262 904 179 q 904 96 846 38 q 788 -20 705 -20 q 622 -20 564 38 q 506 96 506 179 z m 216 -20 l 628 709 l 716 709 l 304 -20 z m 147 510 q 147 477 170 454 q 194 431 227 431 q 260 431 283 454 q 306 477 306 510 q 306 543 283 566 q 260 590 227 590 q 193 590 170 567 q 147 543 147 510 z m 28 510 q 28 593 86 651 q 144 709 227 709 q 310 709 368 651 q 426 593 426 510 q 426 427 368 369 q 310 311 227 311 q 144 311 86 369 q 28 427 28 510 z"},"m":{"x_min":0,"x_max":927,"ha":927,"o":"m 61 0 l 61 531 l 228 531 l 228 458 q 254 501 293 523 q 332 544 386 544 q 444 544 482 523 q 520 501 539 458 q 565 501 605 522 q 645 544 698 544 q 784 544 827 497 q 871 449 871 356 l 871 0 l 701 0 l 701 303 q 701 364 684 388 q 667 412 625 412 q 583 412 563 381 q 543 350 543 284 l 543 0 l 389 0 l 389 303 q 389 364 372 388 q 354 412 313 412 q 271 412 251 381 q 231 350 231 284 l 231 0 z"},"#":{"x_min":0,"x_max":769,"ha":769,"o":"m 345 411 l 305 298 l 425 298 l 465 411 z m 334 716 l 456 716 l 388 524 l 503 524 l 572 716 l 694 716 l 626 524 l 758 524 l 716 411 l 585 411 l 546 299 l 681 299 l 640 186 l 506 186 l 437 -6 l 315 -6 l 383 186 l 268 186 l 199 -6 l 77 -6 l 145 186 l 11 186 l 53 299 l 185 299 l 225 411 l 87 411 l 129 524 l 265 524 z"},",":{"x_min":0,"x_max":295,"ha":295,"o":"m 59 0 l 59 172 l 239 172 l 239 47 q 239 -51 193 -104 q 148 -157 56 -167 l 56 -107 q 106 -95 129 -70 q 153 -45 153 -5 l 153 0 z"},"n":{"x_min":0,"x_max":625,"ha":625,"o":"m 61 0 l 61 531 l 231 531 l 231 458 q 258 501 298 523 q 337 544 392 544 q 485 544 527 497 q 569 451 569 345 l 569 0 l 395 0 l 395 267 q 395 361 379 386 q 364 412 322 412 q 276 412 255 382 q 234 351 234 284 l 234 0 z"},"h":{"x_min":0,"x_max":625,"ha":625,"o":"m 61 0 l 61 719 l 235 719 l 235 462 q 265 505 305 525 q 344 545 398 545 q 481 545 525 499 q 569 453 569 365 l 569 0 l 395 0 l 395 267 q 395 361 379 386 q 364 412 322 412 q 276 412 255 382 q 234 351 234 284 l 234 0 z"},"z":{"x_min":0,"x_max":528,"ha":528,"o":"m 19 0 l 19 128 l 283 406 l 36 406 l 36 531 l 500 531 l 500 406 l 238 128 l 509 128 l 509 0 z"},"B":{"x_min":0,"x_max":729,"ha":729,"o":"m 247 438 l 395 438 q 442 438 465 455 q 488 473 488 508 q 488 541 466 557 q 445 574 403 574 l 247 574 z m 247 143 l 386 143 q 452 143 479 161 q 505 180 505 223 q 505 262 480 282 q 455 302 405 302 l 247 302 z m 71 0 l 71 719 l 420 719 q 545 719 605 674 q 665 629 665 535 q 665 477 638 439 q 612 401 557 381 q 620 365 653 323 q 686 281 686 219 q 686 159 658 110 q 631 61 581 34 q 547 16 500 8 q 452 0 352 0 z"},"K":{"x_min":0,"x_max":730,"ha":730,"o":"m 71 0 l 71 719 l 252 719 l 252 445 l 508 719 l 729 719 l 438 417 l 736 0 l 516 0 l 314 288 l 252 226 l 252 0 z"},"R":{"x_min":0,"x_max":734,"ha":734,"o":"m 253 411 l 390 411 q 446 411 472 432 q 498 452 498 497 q 498 537 473 556 q 447 575 395 575 l 253 575 z m 70 0 l 70 719 l 414 719 q 551 719 615 670 q 680 622 680 519 q 680 458 653 415 q 625 372 567 343 q 614 325 634 294 q 653 263 656 185 q 658 163 659 125 q 663 39 689 25 l 689 0 l 496 0 q 482 38 480 104 q 478 171 476 188 q 472 230 448 250 q 424 269 376 269 l 253 269 l 253 0 z"},"T":{"x_min":0,"x_max":615,"ha":615,"o":"m 215 0 l 215 573 l 9 573 l 9 719 l 605 719 l 605 573 l 399 573 l 399 0 z"},"P":{"x_min":0,"x_max":689,"ha":689,"o":"m 256 402 l 378 402 q 428 402 451 423 q 475 444 475 489 q 475 532 450 553 q 426 574 376 574 l 256 574 z m 71 0 l 71 719 l 400 719 q 525 719 590 661 q 656 604 656 494 q 656 379 591 318 q 527 257 406 257 l 256 257 l 256 0 z"},"|":{"x_min":0,"x_max":500,"ha":500,"o":"m 192 764 l 309 764 l 309 -236 l 192 -236 z"},"t":{"x_min":0,"x_max":360,"ha":360,"o":"m 7 426 l 7 531 l 78 531 l 78 681 l 252 681 l 252 531 l 341 531 l 341 426 l 252 426 l 252 196 q 252 143 266 126 q 279 109 317 109 q 325 109 330 109 q 334 109 339 110 l 339 -1 q 312 -6 285 -9 q 259 -12 235 -12 q 145 -12 111 32 q 78 76 78 220 l 78 426 z"},"M":{"x_min":0,"x_max":922,"ha":922,"o":"m 71 0 l 71 719 l 324 719 l 419 369 q 432 323 442 279 q 452 235 460 194 q 469 238 481 286 q 493 334 508 389 l 597 719 l 850 719 l 850 0 l 682 0 l 682 319 q 682 353 684 413 q 686 474 689 554 l 551 0 l 368 0 l 233 554 q 236 458 238 382 q 240 305 240 262 l 240 0 z"},"g":{"x_min":0,"x_max":647,"ha":647,"o":"m 62 -45 l 236 -45 q 243 -69 262 -80 q 282 -92 316 -92 q 372 -92 395 -67 q 418 -42 418 24 l 418 80 q 390 37 349 16 q 308 -5 254 -5 q 156 -5 94 71 q 32 146 32 267 q 32 391 94 468 q 156 545 256 545 q 311 545 352 524 q 392 504 424 460 l 424 531 l 587 531 l 587 93 q 587 -6 580 -47 q 572 -87 555 -114 q 524 -163 464 -188 q 404 -214 321 -214 q 200 -214 137 -173 q 74 -131 62 -45 z m 212 268 q 212 205 239 168 q 266 132 312 132 q 361 132 389 168 q 416 204 416 268 q 416 338 390 374 q 365 410 315 410 q 265 410 239 374 q 212 337 212 268 z"},"j":{"x_min":0,"x_max":303,"ha":303,"o":"m 67 579 l 67 719 l 241 719 l 241 579 z m 67 531 l 241 531 l 241 41 q 241 -78 227 -118 q 213 -159 179 -183 q 157 -199 125 -206 q 92 -214 45 -214 q 22 -214 10 -213 q -2 -213 -12 -212 l -12 -78 l -7 -78 q 37 -78 52 -62 q 67 -45 67 14 z"},"i":{"x_min":0,"x_max":295,"ha":295,"o":"m 61 579 l 61 719 l 234 719 l 234 579 z m 61 0 l 61 531 l 234 531 l 234 0 z"},"y":{"x_min":0,"x_max":562,"ha":562,"o":"m 354 -59 q 327 -133 308 -162 q 289 -191 264 -202 q 246 -210 219 -213 q 192 -217 125 -217 l 79 -217 l 79 -79 l 113 -79 q 161 -79 179 -67 q 197 -55 197 -25 q 197 -5 173 57 l 171 61 l -8 531 l 179 531 l 279 169 l 381 531 l 566 531 z"},"@":{"x_min":0,"x_max":1000,"ha":1000,"o":"m 567 128 q 540 88 505 69 q 471 51 423 51 q 343 51 302 94 q 261 136 261 219 q 261 337 330 417 q 399 496 501 496 q 539 496 566 481 q 594 466 613 436 l 638 481 l 739 481 l 664 183 q 664 182 664 180 q 662 171 662 167 q 662 152 670 145 q 678 138 693 138 q 760 138 810 208 q 861 278 861 372 q 861 489 773 562 q 686 636 545 636 q 473 636 411 618 q 350 601 299 565 q 223 511 182 431 q 141 351 141 257 q 141 109 240 22 q 339 -66 506 -66 q 586 -66 660 -43 q 734 -20 797 25 l 844 -41 q 768 -98 684 -126 q 599 -155 506 -155 q 412 -155 333 -131 q 253 -107 192 -60 q 115 0 78 77 q 40 155 40 254 q 40 336 66 410 q 92 484 142 546 q 214 635 318 682 q 421 728 546 728 q 629 728 702 706 q 775 683 829 641 q 896 589 928 522 q 961 456 961 373 q 961 292 929 223 q 897 155 836 106 q 802 79 761 64 q 719 50 675 50 q 623 50 596 69 q 569 89 567 128 z m 585 340 q 581 377 561 396 q 541 416 507 416 q 457 416 418 357 q 380 297 380 217 q 380 176 397 154 q 414 132 445 132 q 486 132 517 161 q 548 189 560 238 z"},".":{"x_min":0,"x_max":295,"ha":295,"o":"m 57 0 l 57 172 l 238 172 l 238 0 z"},"p":{"x_min":0,"x_max":648,"ha":648,"o":"m 63 -213 l 63 531 l 237 531 l 237 460 q 266 503 304 524 q 343 545 394 545 q 494 545 556 468 q 618 391 618 267 q 618 142 556 62 q 493 -17 396 -17 q 344 -17 303 4 q 262 25 236 66 l 236 -213 z m 438 259 q 438 331 411 368 q 385 406 335 406 q 285 406 260 369 q 234 332 234 259 q 234 192 261 156 q 289 120 338 120 q 385 120 411 157 q 438 194 438 259 z"},"X":{"x_min":0,"x_max":652,"ha":652,"o":"m -7 0 l 225 369 l 6 719 l 216 719 l 326 527 l 436 719 l 646 719 l 425 369 l 659 0 l 447 0 l 326 209 l 204 0 z"},"*":{"x_min":0,"x_max":500,"ha":500,"o":"m 250 417 l 166 294 l 71 361 l 167 478 l 31 515 l 66 624 l 196 578 l 196 719 l 304 719 l 304 578 l 434 624 l 469 515 l 333 478 l 428 361 l 334 294 z"},"Y":{"x_min":0,"x_max":659,"ha":659,"o":"m 239 0 l 239 271 l -10 719 l 197 719 l 329 429 l 461 719 l 669 719 l 418 271 l 418 0 z"},"c":{"x_min":0,"x_max":578,"ha":578,"o":"m 553 197 q 540 96 472 39 q 404 -17 294 -17 q 175 -17 103 59 q 31 135 31 260 q 31 395 104 472 q 177 550 303 550 q 413 550 479 495 q 546 440 554 343 l 379 343 q 372 380 352 398 q 333 417 302 417 q 257 417 233 378 q 210 340 210 265 q 210 192 232 156 q 254 120 300 120 q 334 120 354 139 q 375 158 382 197 z"},"!":{"x_min":0,"x_max":341,"ha":341,"o":"m 121 233 l 80 519 l 80 719 l 260 719 l 260 519 l 218 233 z m 81 0 l 81 172 l 261 172 l 261 0 z"},"/":{"x_min":0,"x_max":331,"ha":331,"o":"m 80 -93 l 1 -93 l 250 738 l 330 738 z"},"[":{"x_min":0,"x_max":409,"ha":409,"o":"m 400 -210 l 114 -210 l 114 719 l 400 719 l 400 597 l 276 597 l 276 -88 l 400 -88 z"},"6":{"x_min":0,"x_max":590,"ha":590,"o":"m 303 107 q 346 107 370 137 q 394 167 394 221 q 394 274 370 304 q 346 333 303 333 q 259 333 235 304 q 211 274 211 220 q 211 167 235 137 q 260 107 303 107 z m 544 524 l 387 524 q 378 555 360 570 q 341 585 312 585 q 266 585 239 542 q 212 499 206 413 q 236 438 269 450 q 301 462 337 462 q 440 462 500 401 q 559 340 559 234 q 559 115 491 47 q 422 -22 304 -22 q 174 -22 104 71 q 33 164 33 337 q 33 515 109 612 q 185 710 323 710 q 418 710 477 660 q 537 610 544 524 z"},"r":{"x_min":0,"x_max":422,"ha":422,"o":"m 61 0 l 61 531 l 228 531 l 228 438 q 256 493 297 518 q 339 543 403 544 l 403 372 q 392 374 381 374 q 370 375 360 375 q 320 375 294 363 q 268 351 252 326 q 242 310 238 279 q 234 248 234 178 l 234 0 z"},"2":{"x_min":0,"x_max":590,"ha":590,"o":"m 29 0 q 34 83 68 146 q 102 209 174 266 q 196 284 242 314 q 288 345 308 362 q 343 391 360 420 q 377 450 377 481 q 377 526 354 551 q 332 576 291 576 q 245 576 222 544 q 198 511 198 447 l 36 447 q 37 567 107 639 q 176 710 292 710 q 407 710 479 648 q 550 586 550 487 q 550 431 528 385 q 505 340 452 290 q 425 264 358 218 q 291 171 263 139 l 544 139 l 544 0 z"},"{":{"x_min":0,"x_max":500,"ha":500,"o":"m 436 721 l 436 603 q 433 603 426 604 q 419 604 416 604 q 368 604 352 587 q 335 569 335 515 l 335 398 q 335 330 312 300 q 290 271 232 259 q 291 247 313 219 q 335 190 335 121 l 335 3 q 335 -51 351 -68 q 368 -85 415 -85 q 418 -85 426 -84 q 433 -84 436 -84 l 436 -202 q 429 -202 416 -203 q 402 -203 396 -203 q 343 -203 308 -197 q 273 -191 250 -179 q 221 -164 210 -136 q 198 -108 198 -42 l 198 83 q 198 148 174 175 q 150 201 92 201 q 90 201 83 201 q 77 200 74 200 l 74 318 q 77 318 83 317 q 89 317 92 317 q 149 317 174 344 q 198 371 198 436 l 198 560 q 198 626 210 655 q 222 683 250 698 q 273 710 309 716 q 344 722 397 722 q 403 722 416 722 q 429 721 436 721 z"},"9":{"x_min":0,"x_max":590,"ha":590,"o":"m 285 581 q 242 581 218 551 q 194 521 194 468 q 194 415 218 385 q 242 356 285 356 q 330 356 353 385 q 377 415 377 469 q 377 522 353 552 q 329 581 285 581 z m 44 165 l 201 165 q 210 133 228 118 q 246 103 275 103 q 322 103 349 147 q 376 191 382 276 q 353 251 320 239 q 287 227 251 227 q 148 227 89 288 q 29 349 29 455 q 29 574 97 642 q 166 710 284 710 q 415 710 485 617 q 555 525 555 352 q 555 174 479 77 q 403 -21 265 -21 q 170 -21 111 29 q 52 79 44 165 z"}," ":{"x_min":0,"x_max":295,"ha":295,"o":""},"I":{"x_min":0,"x_max":334,"ha":334,"o":"m 75 0 l 75 719 l 259 719 l 259 0 z"},"H":{"x_min":0,"x_max":764,"ha":764,"o":"m 71 0 l 71 719 l 256 719 l 256 464 l 508 464 l 508 719 l 693 719 l 693 0 l 508 0 l 508 303 l 256 303 l 256 0 z"},"4":{"x_min":0,"x_max":590,"ha":590,"o":"m 323 262 l 323 534 l 147 262 z m 319 0 l 319 139 l 24 139 l 24 274 l 292 690 l 489 690 l 489 266 l 563 266 l 563 139 l 489 139 l 489 0 z"},"~":{"x_min":0,"x_max":833,"ha":833,"o":"m 747 400 l 747 276 q 698 242 652 226 q 607 209 563 209 q 541 209 520 213 q 498 216 479 223 q 473 225 460 229 q 336 273 274 273 q 233 273 188 255 q 144 236 87 196 l 87 320 q 142 355 188 373 q 235 390 276 390 q 307 390 338 384 q 369 378 420 362 q 428 359 445 354 q 523 326 566 326 q 607 326 651 344 q 694 361 747 400 z"},"D":{"x_min":0,"x_max":749,"ha":749,"o":"m 256 151 l 356 151 q 441 151 481 201 q 521 251 521 359 q 521 467 481 517 q 441 567 356 567 l 256 567 z m 71 0 l 71 719 l 378 719 q 538 719 623 626 q 708 533 708 359 q 708 179 620 89 q 532 0 354 0 z"},"^":{"x_min":0,"x_max":1000,"ha":1000,"o":"m 429 714 l 570 714 l 797 439 l 668 439 l 500 606 l 331 439 l 202 439 z"},"0":{"x_min":0,"x_max":590,"ha":590,"o":"m 206 345 q 206 219 227 165 q 248 111 295 111 q 343 111 364 165 q 385 220 385 345 q 385 470 364 524 q 343 578 295 578 q 248 578 227 526 q 206 475 206 355 z m 28 345 q 28 527 94 618 q 161 709 295 709 q 429 709 496 618 q 563 527 563 345 q 563 163 496 72 q 429 -19 295 -19 q 161 -19 94 72 q 28 163 28 345 z"},"F":{"x_min":0,"x_max":610,"ha":610,"o":"m 72 0 l 72 719 l 588 719 l 588 570 l 255 570 l 255 421 l 544 421 l 544 272 l 255 272 l 255 0 z"},"`":{"x_min":0,"x_max":500,"ha":500,"o":"m 101 775 l 241 775 l 335 595 l 260 595 z"},"k":{"x_min":0,"x_max":605,"ha":605,"o":"m 61 0 l 61 719 l 232 719 l 232 348 l 392 531 l 596 531 l 412 328 l 601 0 l 408 0 l 296 210 l 232 143 l 232 0 z"},"u":{"x_min":0,"x_max":625,"ha":625,"o":"m 565 531 l 565 0 l 395 0 l 395 73 q 364 29 324 8 q 285 -13 234 -13 q 146 -13 102 32 q 57 77 57 166 l 57 531 l 231 531 l 231 234 q 231 168 247 144 q 264 119 304 119 q 350 119 370 149 q 391 179 391 247 l 391 531 z"},"]":{"x_min":0,"x_max":409,"ha":409,"o":"m 16 -210 l 16 -88 l 140 -88 l 140 597 l 16 597 l 16 719 l 302 719 l 302 -210 z"},"U":{"x_min":0,"x_max":737,"ha":737,"o":"m 66 719 l 247 719 l 247 270 q 247 196 275 164 q 303 133 368 133 q 432 133 460 164 q 488 196 488 270 l 488 719 l 671 719 l 671 292 q 671 202 653 148 q 636 94 595 57 q 553 19 496 -1 q 440 -20 369 -20 q 298 -20 242 -1 q 186 19 143 57 q 102 95 84 149 q 66 203 66 292 z"},"o":{"x_min":0,"x_max":625,"ha":625,"o":"m 209 266 q 209 193 236 154 q 263 115 312 115 q 362 115 389 155 q 416 194 416 266 q 416 338 389 377 q 362 416 312 416 q 262 416 236 377 q 209 338 209 266 z m 31 266 q 31 399 105 475 q 180 550 312 550 q 444 550 519 475 q 594 399 594 266 q 594 133 519 57 q 444 -18 312 -18 q 179 -18 105 57 q 31 132 31 266 z"},"N":{"x_min":0,"x_max":765,"ha":765,"o":"m 70 0 l 70 719 l 269 719 l 405 483 q 438 425 468 369 q 498 312 524 257 q 520 338 518 410 q 516 481 516 535 l 516 719 l 694 719 l 694 0 l 495 0 l 354 243 q 329 286 300 340 q 271 393 238 455 q 243 385 246 324 q 248 264 248 217 l 248 0 z"},"+":{"x_min":0,"x_max":833,"ha":833,"o":"m 359 596 l 475 596 l 475 355 l 709 355 l 709 242 l 475 242 l 475 0 l 359 0 l 359 242 l 124 242 l 124 355 l 359 355 z"},"G":{"x_min":0,"x_max":790,"ha":790,"o":"m 612 0 l 597 93 q 557 36 501 9 q 445 -19 370 -19 q 300 -19 241 6 q 182 32 136 81 q 89 132 64 201 q 40 270 40 351 q 40 527 141 634 q 242 740 409 740 q 536 740 618 677 q 700 613 722 499 l 546 499 q 528 545 492 569 q 456 593 404 593 q 325 593 276 528 q 227 464 227 358 q 227 253 275 192 q 323 130 404 130 q 468 130 510 163 q 553 195 563 254 l 403 254 l 403 392 l 727 392 l 727 0 z"},"q":{"x_min":0,"x_max":648,"ha":648,"o":"m 586 -213 l 412 -213 l 412 66 q 386 25 345 4 q 304 -17 252 -17 q 155 -17 93 62 q 31 141 31 267 q 31 392 93 468 q 154 545 254 545 q 305 545 344 524 q 382 503 411 460 l 411 531 l 586 531 z m 210 259 q 210 194 237 157 q 264 120 311 120 q 360 120 387 156 q 414 192 414 259 q 414 332 388 369 q 363 406 313 406 q 263 406 237 368 q 210 331 210 259 z"},"d":{"x_min":0,"x_max":648,"ha":648,"o":"m 588 719 l 588 0 l 414 0 l 414 70 q 385 26 346 6 q 308 -15 257 -15 q 157 -15 95 62 q 33 139 33 263 q 33 389 95 468 q 158 547 255 547 q 307 547 348 526 q 389 505 415 464 l 415 719 z m 213 271 q 213 200 240 162 q 266 124 316 124 q 366 124 391 161 q 417 199 417 271 q 417 338 390 375 q 363 411 314 411 q 268 411 240 374 q 213 336 213 271 z"},"1":{"x_min":0,"x_max":590,"ha":590,"o":"m 254 0 l 254 453 l 93 453 l 93 563 l 107 563 q 197 563 241 593 q 285 624 291 690 l 428 690 l 428 0 z"},"5":{"x_min":0,"x_max":590,"ha":590,"o":"m 47 302 l 96 691 l 527 691 l 527 553 l 212 553 l 194 418 q 217 441 250 453 q 284 465 328 465 q 431 465 492 402 q 553 338 553 232 q 553 115 479 48 q 405 -19 276 -19 q 160 -19 95 36 q 30 91 23 195 l 192 195 q 194 157 218 136 q 241 115 280 115 q 327 115 351 143 q 376 171 376 225 q 376 278 352 308 q 329 338 286 338 q 257 338 236 327 q 214 317 199 295 z"}}}
